<svg width="77" height="22" viewBox="0 0 77 22" fill="none" xmlns="http://www.w3.org/2000/svg">
<path d="M70.5258 3.74724H67.8359V1.82898H75.4675V3.74724H72.7777V10.9018H70.5258V3.74724Z" fill="#313132"/>
<path d="M58.8154 1.82898H61.0674V7.27269L64.5078 1.82898H66.5721V10.9018H64.3202V5.45812L60.8797 10.9018H58.8154V1.82898Z" fill="#313132"/>
<path d="M48.6035 8.98356H49.6044C49.7128 8.68977 49.8004 8.35278 49.8671 7.97259C49.9422 7.58375 50.0006 7.17331 50.0423 6.74127C50.084 6.30059 50.1132 5.85127 50.1298 5.39331C50.1549 4.92671 50.1674 4.47306 50.1674 4.03238V1.82898H56.5979V8.98356H57.4862V12.5868H55.5345V10.9018H50.5552V12.5868H48.6035V8.98356ZM54.346 8.98356V3.74724H52.2692V4.29161C52.2692 5.34579 52.2275 6.25739 52.1441 7.02642C52.069 7.78681 51.9439 8.43919 51.7687 8.98356H54.346Z" fill="#313132"/>
<path d="M41.3311 1.82898H47.7116V3.61763H43.583V5.39331H47.3362V7.07827H43.583V9.11318H47.7116V10.9018H41.3311V1.82898Z" fill="#313132"/>
<path d="M32.8096 1.82898H36.3751C37.5929 1.82898 38.4895 2.10549 39.065 2.6585C39.6488 3.20287 39.9407 3.95894 39.9407 4.92671C39.9407 5.89448 39.6488 6.65487 39.065 7.20788C38.4895 7.75225 37.5929 8.02443 36.3751 8.02443H35.0615V10.9018H32.8096V1.82898ZM36.1249 6.10618C36.7004 6.10618 37.1049 6.00681 37.3385 5.80807C37.572 5.60933 37.6888 5.31554 37.6888 4.92671C37.6888 4.53787 37.572 4.24408 37.3385 4.04535C37.1049 3.84661 36.7004 3.74724 36.1249 3.74724H35.0615V6.10618H36.1249Z" fill="#313132"/>
<path d="M23.4688 1.82898H25.7207V5.41923H26.3462L29.0235 1.82898H31.4757L28.0977 6.06729L31.6008 10.9018H28.9735L26.3462 7.05234H25.7207V10.9018H23.4688V1.82898Z" fill="#313132"/>
<path d="M73.9204 15.4986C73.7918 15.4559 73.6958 15.3875 73.6323 15.2934C73.5689 15.1992 73.5371 15.0873 73.5371 14.9576C73.5371 14.8669 73.5517 14.7852 73.5809 14.7124C73.61 14.6377 73.6529 14.5747 73.7095 14.5231C73.7661 14.4698 73.8364 14.429 73.9204 14.4006C74.0062 14.3721 74.1057 14.3579 74.2188 14.3579H74.952V16.2235H74.5661V15.5412H74.2806L73.8818 16.2235H73.46L73.9204 15.4986ZM73.923 14.9576C73.923 15.002 73.929 15.0411 73.941 15.0748C73.953 15.1086 73.9736 15.137 74.0028 15.1601C74.0319 15.1814 74.0696 15.1983 74.1159 15.2107C74.164 15.2214 74.224 15.2267 74.296 15.2267H74.5661V14.6884H74.296C74.224 14.6884 74.164 14.6946 74.1159 14.707C74.0696 14.7177 74.0319 14.7346 74.0028 14.7577C73.9736 14.779 73.953 14.8065 73.941 14.8403C73.929 14.874 73.923 14.9131 73.923 14.9576Z" fill="#313132"/>
<path d="M71.5117 14.3579H71.8976V15.5972L72.6822 14.3579H73.0552V16.2235H72.6693V14.9842L71.8822 16.2235H71.5117V14.3579Z" fill="#313132"/>
<path d="M70.7752 16.2235H69.4092V14.3579H69.795V15.893H70.5153V14.3579H70.9012V15.893H71.1199V16.5699H70.7752V16.2235Z" fill="#313132"/>
<path d="M68.5219 15.8424H67.8557L67.7193 16.2235H67.3438L68.0126 14.3579H68.3985L69.0673 16.2235H68.6609L68.5219 15.8424ZM67.974 15.5119H68.4062L68.1901 14.8643L67.974 15.5119Z" fill="#313132"/>
<path d="M66.3993 16.2554C66.161 16.2554 65.9792 16.2004 65.854 16.0902C65.7288 15.9783 65.6619 15.8273 65.6533 15.6371H66.0546C66.0632 15.7278 66.0949 15.7979 66.1498 15.8477C66.2047 15.8957 66.2879 15.9196 66.3993 15.9196C66.5194 15.9196 66.6068 15.8965 66.6617 15.8504C66.7166 15.8042 66.744 15.7411 66.744 15.6611C66.744 15.5812 66.7175 15.5181 66.6643 15.4719C66.6129 15.4239 66.5202 15.4 66.3865 15.4H66.1961V15.1281H66.3865C66.4396 15.1281 66.4851 15.1219 66.5228 15.1095C66.5605 15.0952 66.5906 15.0775 66.6129 15.0562C66.6369 15.0331 66.654 15.0064 66.6643 14.9762C66.6746 14.946 66.6797 14.914 66.6797 14.8803C66.6797 14.8145 66.6574 14.7621 66.6129 14.723C66.5683 14.6822 66.4971 14.6617 66.3993 14.6617C66.2999 14.6617 66.2253 14.6813 66.1755 14.7204C66.1275 14.7577 66.1001 14.819 66.0932 14.9043H65.6919C65.7005 14.7159 65.7622 14.5729 65.8771 14.4752C65.992 14.3757 66.1661 14.3259 66.3993 14.3259C66.6309 14.3259 66.8024 14.373 66.9138 14.4672C67.0253 14.5596 67.081 14.6884 67.081 14.8536C67.081 14.9513 67.0579 15.0348 67.0116 15.1041C66.9653 15.1716 66.8975 15.2205 66.8084 15.2507C66.9181 15.2774 67.0013 15.3289 67.0579 15.4053C67.1162 15.4799 67.1454 15.5776 67.1454 15.6984C67.1454 15.7802 67.1299 15.8557 67.099 15.925C67.0682 15.9925 67.0219 16.0511 66.9601 16.1009C66.8984 16.1488 66.8204 16.187 66.726 16.2155C66.6334 16.2421 66.5245 16.2554 66.3993 16.2554Z" fill="#313132"/>
<path d="M63.7051 14.3579H64.0909V15.5972L64.8756 14.3579H65.2486V16.2235H64.8627V14.9842L64.0755 16.2235H63.7051V14.3579Z" fill="#313132"/>
<path d="M61.6426 14.3579H62.0284V15.0988H62.8002V14.3579H63.1861V16.2235H62.8002V15.4293H62.0284V16.2235H61.6426V14.3579Z" fill="#313132"/>
<path d="M60.7544 15.8424H60.0881L59.9518 16.2235H59.5762L60.245 14.3579H60.6309L61.2997 16.2235H60.8933L60.7544 15.8424ZM60.2064 15.5119H60.6386L60.4225 14.8643L60.2064 15.5119Z" fill="#313132"/>
<path d="M58.4395 14.3579H59.6228V14.6884H58.8253V16.2235H58.4395V14.3579Z" fill="#313132"/>
<path d="M56.6201 14.3579H57.3147C57.5582 14.3579 57.7391 14.4139 57.8575 14.5258C57.9758 14.636 58.035 14.7843 58.035 14.9709C58.035 15.1574 57.9758 15.3067 57.8575 15.4186C57.7391 15.5288 57.5582 15.5838 57.3147 15.5838H57.006V16.2235H56.6201V14.3579ZM57.2761 15.2534C57.4133 15.2534 57.5093 15.2294 57.5642 15.1814C57.6208 15.1334 57.6491 15.0633 57.6491 14.9709C57.6491 14.8803 57.6208 14.811 57.5642 14.763C57.5093 14.7133 57.4133 14.6884 57.2761 14.6884H57.006V15.2534H57.2761Z" fill="#313132"/>
<path d="M55.3284 16.2554C55.2152 16.2554 55.1072 16.2377 55.0043 16.2021C54.9031 16.1666 54.8131 16.1106 54.7342 16.0342C54.657 15.9578 54.5953 15.8601 54.5489 15.7411C54.5026 15.6203 54.4795 15.4746 54.4795 15.304V15.2507C54.4795 15.0873 54.5026 14.9478 54.5489 14.8323C54.5953 14.715 54.657 14.6191 54.7342 14.5445C54.8131 14.4698 54.9031 14.4148 55.0043 14.3792C55.1072 14.3437 55.2152 14.3259 55.3284 14.3259C55.4416 14.3259 55.5488 14.3437 55.65 14.3792C55.7529 14.4148 55.8429 14.4698 55.9201 14.5445C55.999 14.6191 56.0616 14.715 56.1079 14.8323C56.1542 14.9478 56.1773 15.0873 56.1773 15.2507V15.304C56.1773 15.4746 56.1542 15.6203 56.1079 15.7411C56.0616 15.8601 55.999 15.9578 55.9201 16.0342C55.8429 16.1106 55.7529 16.1666 55.65 16.2021C55.5488 16.2377 55.4416 16.2554 55.3284 16.2554ZM55.3284 15.9196C55.3867 15.9196 55.4425 15.9099 55.4956 15.8903C55.5505 15.869 55.5985 15.8344 55.6397 15.7864C55.6808 15.7384 55.7134 15.6753 55.7374 15.5972C55.7632 15.519 55.776 15.4213 55.776 15.304V15.2507C55.776 15.1406 55.7632 15.0482 55.7374 14.9735C55.7134 14.8989 55.6808 14.8385 55.6397 14.7923C55.5985 14.7461 55.5505 14.7133 55.4956 14.6937C55.4425 14.6724 55.3867 14.6617 55.3284 14.6617C55.2701 14.6617 55.2135 14.6724 55.1586 14.6937C55.1055 14.7133 55.0583 14.7461 55.0171 14.7923C54.976 14.8385 54.9425 14.8989 54.9168 14.9735C54.8928 15.0482 54.8808 15.1406 54.8808 15.2507V15.304C54.8808 15.4213 54.8928 15.519 54.9168 15.5972C54.9425 15.6753 54.976 15.7384 55.0171 15.7864C55.0583 15.8344 55.1055 15.869 55.1586 15.8903C55.2135 15.9099 55.2701 15.9196 55.3284 15.9196Z" fill="#313132"/>
<path d="M52.2515 15.4986C52.1229 15.4559 52.0268 15.3875 51.9634 15.2934C51.8999 15.1992 51.8682 15.0873 51.8682 14.9576C51.8682 14.8669 51.8828 14.7852 51.9119 14.7124C51.9411 14.6377 51.984 14.5747 52.0405 14.5231C52.0971 14.4698 52.1675 14.429 52.2515 14.4006C52.3372 14.3721 52.4367 14.3579 52.5499 14.3579H53.283V16.2235H52.8972V15.5412H52.6116L52.2129 16.2235H51.791L52.2515 15.4986ZM52.2541 14.9576C52.2541 15.002 52.2601 15.0411 52.2721 15.0748C52.2841 15.1086 52.3047 15.137 52.3338 15.1601C52.363 15.1814 52.4007 15.1983 52.447 15.2107C52.495 15.2214 52.555 15.2267 52.6271 15.2267H52.8972V14.6884H52.6271C52.555 14.6884 52.495 14.6946 52.447 14.707C52.4007 14.7177 52.363 14.7346 52.3338 14.7577C52.3047 14.779 52.2841 14.8065 52.2721 14.8403C52.2601 14.874 52.2541 14.9131 52.2541 14.9576Z" fill="#313132"/>
<path d="M51.0073 15.8424H50.341L50.2047 16.2235H49.8291L50.4979 14.3579H50.8838L51.5527 16.2235H51.1462L51.0073 15.8424ZM50.4594 15.5119H50.8915L50.6754 14.8643L50.4594 15.5119Z" fill="#313132"/>
<path d="M48.1973 14.3579H48.969C49.1714 14.3579 49.3206 14.4023 49.4166 14.4912C49.5127 14.5782 49.5607 14.6999 49.5607 14.8563C49.5607 14.9522 49.5375 15.0348 49.4912 15.1041C49.4466 15.1716 49.3849 15.2205 49.306 15.2507C49.4089 15.2756 49.4895 15.3262 49.5478 15.4026C49.6078 15.4772 49.6378 15.575 49.6378 15.6958C49.6378 15.7757 49.6258 15.8486 49.6018 15.9143C49.5778 15.9783 49.5401 16.0334 49.4886 16.0796C49.4389 16.1257 49.3737 16.1613 49.2931 16.1862C49.2125 16.211 49.1156 16.2235 49.0024 16.2235H48.1973V14.3579ZM48.933 15.9196C49.053 15.9196 49.1362 15.8983 49.1825 15.8557C49.2288 15.813 49.252 15.75 49.252 15.6665C49.252 15.583 49.2288 15.5181 49.1825 15.4719C49.1362 15.4239 49.0522 15.4 48.9304 15.4H48.5831V15.9196H48.933ZM48.8918 15.1281C48.9964 15.1281 49.0693 15.1068 49.1105 15.0642C49.1534 15.0215 49.1748 14.9638 49.1748 14.8909C49.1748 14.8163 49.1542 14.7594 49.1131 14.7204C49.0719 14.6813 48.999 14.6617 48.8944 14.6617H48.5831V15.1281H48.8918Z" fill="#313132"/>
<path d="M46.9056 16.2554C46.7924 16.2554 46.6843 16.2377 46.5814 16.2021C46.4802 16.1666 46.3902 16.1106 46.3113 16.0342C46.2341 15.9578 46.1724 15.8601 46.1261 15.7411C46.0798 15.6203 46.0566 15.4746 46.0566 15.304V15.2507C46.0566 15.0873 46.0798 14.9478 46.1261 14.8323C46.1724 14.715 46.2341 14.6191 46.3113 14.5445C46.3902 14.4698 46.4802 14.4148 46.5814 14.3792C46.6843 14.3437 46.7924 14.3259 46.9056 14.3259C47.0187 14.3259 47.1259 14.3437 47.2271 14.3792C47.33 14.4148 47.42 14.4698 47.4972 14.5445C47.5761 14.6191 47.6387 14.715 47.685 14.8323C47.7313 14.9478 47.7545 15.0873 47.7545 15.2507V15.304C47.7545 15.4746 47.7313 15.6203 47.685 15.7411C47.6387 15.8601 47.5761 15.9578 47.4972 16.0342C47.42 16.1106 47.33 16.1666 47.2271 16.2021C47.1259 16.2377 47.0187 16.2554 46.9056 16.2554ZM46.9056 15.9196C46.9639 15.9196 47.0196 15.9099 47.0728 15.8903C47.1276 15.869 47.1757 15.8344 47.2168 15.7864C47.258 15.7384 47.2906 15.6753 47.3146 15.5972C47.3403 15.519 47.3532 15.4213 47.3532 15.304V15.2507C47.3532 15.1406 47.3403 15.0482 47.3146 14.9735C47.2906 14.8989 47.258 14.8385 47.2168 14.7923C47.1757 14.7461 47.1276 14.7133 47.0728 14.6937C47.0196 14.6724 46.9639 14.6617 46.9056 14.6617C46.8472 14.6617 46.7906 14.6724 46.7358 14.6937C46.6826 14.7133 46.6354 14.7461 46.5943 14.7923C46.5531 14.8385 46.5197 14.8989 46.494 14.9735C46.4699 15.0482 46.4579 15.1406 46.4579 15.2507V15.304C46.4579 15.4213 46.4699 15.519 46.494 15.5972C46.5197 15.6753 46.5531 15.7384 46.5943 15.7864C46.6354 15.8344 46.6826 15.869 46.7358 15.8903C46.7906 15.9099 46.8472 15.9196 46.9056 15.9196Z" fill="#313132"/>
<path d="M44.9568 16.2554C44.8385 16.2554 44.7296 16.2377 44.6301 16.2021C44.5324 16.1666 44.4475 16.1115 44.3754 16.0369C44.3034 15.9605 44.2468 15.8619 44.2056 15.7411C44.1662 15.6203 44.1465 15.4746 44.1465 15.304V15.2507C44.1465 15.0873 44.1671 14.9478 44.2082 14.8323C44.2511 14.715 44.3085 14.6191 44.3806 14.5445C44.4543 14.4698 44.5401 14.4148 44.6378 14.3792C44.7373 14.3437 44.8436 14.3259 44.9568 14.3259C45.058 14.3259 45.1532 14.3384 45.2424 14.3632C45.3315 14.3881 45.4096 14.4272 45.4764 14.4805C45.545 14.532 45.5999 14.5987 45.6411 14.6804C45.684 14.7621 45.7088 14.8589 45.7157 14.9709H45.3144C45.2955 14.8643 45.2544 14.7861 45.1909 14.7364C45.1275 14.6866 45.0494 14.6617 44.9568 14.6617C44.9036 14.6617 44.8522 14.6715 44.8025 14.691C44.7544 14.7106 44.7116 14.7435 44.6738 14.7897C44.6361 14.8358 44.6052 14.8963 44.5812 14.9709C44.5589 15.0455 44.5478 15.1388 44.5478 15.2507V15.304C44.5478 15.4213 44.5598 15.5199 44.5838 15.5998C44.6078 15.678 44.6387 15.7411 44.6764 15.7891C44.7159 15.8353 44.7596 15.869 44.8076 15.8903C44.8573 15.9099 44.9071 15.9196 44.9568 15.9196C45.0546 15.9196 45.1352 15.8939 45.1986 15.8424C45.2621 15.7891 45.3007 15.7118 45.3144 15.6105H45.7157C45.7071 15.7278 45.6822 15.8273 45.6411 15.909C45.5999 15.9907 45.5459 16.0573 45.479 16.1089C45.4121 16.1604 45.3341 16.1977 45.2449 16.2208C45.1557 16.2439 45.0597 16.2554 44.9568 16.2554Z" fill="#313132"/>
<path d="M42.1592 14.3579H42.5451V15.0988H43.3168V14.3579H43.7027V16.2235H43.3168V15.4293H42.5451V16.2235H42.1592V14.3579Z" fill="#313132"/>
<path d="M41.2729 15.8424H40.6066L40.4703 16.2235H40.0947L40.7636 14.3579H41.1494L41.8183 16.2235H41.4118L41.2729 15.8424ZM40.725 15.5119H41.1572L40.9411 14.8643L40.725 15.5119Z" fill="#313132"/>
<path d="M38.2109 14.3579H38.5968V15.0988H39.3685V14.3579H39.7544V16.2235H39.3685V15.4293H38.5968V16.2235H38.2109V14.3579Z" fill="#313132"/>
<path d="M36.1475 14.3579H36.5333V15.5972L37.3179 14.3579H37.6909V16.2235H37.3051V14.9842L36.5179 16.2235H36.1475V14.3579Z" fill="#313132"/>
<path d="M34.4817 16.1382C34.3462 16.1382 34.2253 16.1186 34.119 16.0795C34.0144 16.0387 33.9261 15.9809 33.854 15.9063C33.782 15.8317 33.7271 15.7429 33.6894 15.6398C33.6517 15.535 33.6328 15.4186 33.6328 15.2907V15.2374C33.6328 15.1237 33.6517 15.018 33.6894 14.9202C33.7271 14.8225 33.782 14.739 33.854 14.6697C33.9261 14.5987 34.0144 14.5436 34.119 14.5045C34.2253 14.4636 34.3462 14.4432 34.4817 14.4432V14.278H34.8676V14.4432C35.0014 14.4432 35.1206 14.4636 35.2252 14.5045C35.3315 14.5436 35.4207 14.5987 35.4927 14.6697C35.5664 14.739 35.6222 14.8225 35.6599 14.9202C35.6976 15.018 35.7165 15.1237 35.7165 15.2374V15.2907C35.7165 15.4186 35.6976 15.535 35.6599 15.6398C35.6222 15.7429 35.5664 15.8317 35.4927 15.9063C35.4207 15.9809 35.3315 16.0387 35.2252 16.0795C35.1206 16.1186 35.0014 16.1382 34.8676 16.1382V16.3034H34.4817V16.1382ZM35.3178 15.2374C35.3178 15.0917 35.28 14.9789 35.2046 14.8989C35.1291 14.819 35.0168 14.779 34.8676 14.779V15.8024C35.1677 15.8024 35.3178 15.6318 35.3178 15.2907V15.2374ZM34.0341 15.2907C34.0341 15.463 34.0701 15.5918 34.1422 15.6771C34.2142 15.7606 34.3274 15.8024 34.4817 15.8024V14.779C34.3308 14.779 34.2185 14.819 34.1447 14.8989C34.071 14.9789 34.0341 15.0917 34.0341 15.2374V15.2907Z" fill="#313132"/>
<path d="M32.4319 16.2554C32.3187 16.2554 32.2107 16.2377 32.1078 16.2021C32.0066 16.1666 31.9166 16.1106 31.8377 16.0342C31.7605 15.9578 31.6988 15.8601 31.6525 15.7411C31.6062 15.6203 31.583 15.4746 31.583 15.304V15.2507C31.583 15.0873 31.6062 14.9478 31.6525 14.8323C31.6988 14.715 31.7605 14.6191 31.8377 14.5445C31.9166 14.4698 32.0066 14.4148 32.1078 14.3792C32.2107 14.3437 32.3187 14.3259 32.4319 14.3259C32.5451 14.3259 32.6523 14.3437 32.7535 14.3792C32.8564 14.4148 32.9464 14.4698 33.0236 14.5445C33.1025 14.6191 33.1651 14.715 33.2114 14.8323C33.2577 14.9478 33.2808 15.0873 33.2808 15.2507V15.304C33.2808 15.4746 33.2577 15.6203 33.2114 15.7411C33.1651 15.8601 33.1025 15.9578 33.0236 16.0342C32.9464 16.1106 32.8564 16.1666 32.7535 16.2021C32.6523 16.2377 32.5451 16.2554 32.4319 16.2554ZM32.4319 15.9196C32.4902 15.9196 32.546 15.9099 32.5991 15.8903C32.654 15.869 32.702 15.8344 32.7432 15.7864C32.7843 15.7384 32.8169 15.6753 32.8409 15.5972C32.8667 15.519 32.8795 15.4213 32.8795 15.304V15.2507C32.8795 15.1406 32.8667 15.0482 32.8409 14.9735C32.8169 14.8989 32.7843 14.8385 32.7432 14.7923C32.702 14.7461 32.654 14.7133 32.5991 14.6937C32.546 14.6724 32.4902 14.6617 32.4319 14.6617C32.3736 14.6617 32.317 14.6724 32.2621 14.6937C32.209 14.7133 32.1618 14.7461 32.1207 14.7923C32.0795 14.8385 32.0461 14.8989 32.0203 14.9735C31.9963 15.0482 31.9843 15.1406 31.9843 15.2507V15.304C31.9843 15.4213 31.9963 15.519 32.0203 15.5972C32.0461 15.6753 32.0795 15.7384 32.1207 15.7864C32.1618 15.8344 32.209 15.869 32.2621 15.8903C32.317 15.9099 32.3736 15.9196 32.4319 15.9196Z" fill="#313132"/>
<path d="M29.8398 14.3579H30.5344C30.7779 14.3579 30.9589 14.4139 31.0772 14.5258C31.1955 14.636 31.2547 14.7843 31.2547 14.9709C31.2547 15.1574 31.1955 15.3067 31.0772 15.4186C30.9589 15.5288 30.7779 15.5838 30.5344 15.5838H30.2257V16.2235H29.8398V14.3579ZM30.4958 15.2534C30.633 15.2534 30.7291 15.2294 30.7839 15.1814C30.8405 15.1334 30.8688 15.0633 30.8688 14.9709C30.8688 14.8803 30.8405 14.811 30.7839 14.763C30.7291 14.7133 30.633 14.6884 30.4958 14.6884H30.2257V15.2534H30.4958Z" fill="#313132"/>
<path d="M27.9043 14.3579H28.2902V15.1175H28.4445L29.0207 14.3579H29.4478L28.7403 15.2401L29.4735 16.2235H29.0207L28.4445 15.4106H28.2902V16.2235H27.9043V14.3579Z" fill="#313132"/>
<path d="M25.8408 14.3579H26.2267V15.5972L27.0113 14.3579H27.3843V16.2235H26.9984V14.9842L26.2113 16.2235H25.8408V14.3579Z" fill="#313132"/>
<path d="M23.4688 14.3579H23.8546L24.4026 15.408L24.9479 14.3579H25.3209V16.2235H24.9351V15.0375L24.5106 15.8504H24.2791L23.8546 15.0375V16.2235H23.4688V14.3579Z" fill="#313132"/>
<path d="M19.1156 0H3.42876C3.04477 0 2.73348 0.311291 2.73348 0.695286V13.362C2.73348 13.4179 2.72674 13.4735 2.71342 13.5278L1.66397 17.8023C1.53837 18.3138 2.00511 18.7738 2.51479 18.6408L6.06262 17.7148C6.11995 17.6998 6.17896 17.6923 6.23821 17.6923H19.1156C19.4996 17.6923 19.8109 17.381 19.8109 16.997V0.695285C19.8109 0.31129 19.4996 0 19.1156 0Z" fill="#67C262"/>
<path d="M8.54883 11.8094H10.6719V5.98066L8.54883 7.54783V5.54076L10.7913 3.89111H12.6623V11.8094H14.3873V13.514H8.54883V11.8094Z" fill="white"/>
</svg>
