<svg xmlns="http://www.w3.org/2000/svg" width="100%" height="100%" viewBox="0 0 71 23" fill="none" class="navbar-logo__desctop"><path d="M27.5655 0C28.1511 0.107463 28.7405 0.193433 29.3203 0.324342C31.5011 0.81867 33.4484 1.7448 34.993 3.41927C35.2343 3.67913 35.207 3.81395 34.96 4.04841C33.7791 5.16993 32.6138 6.30708 31.4563 7.45205C31.2443 7.66111 31.1275 7.69042 30.8921 7.46573C28.0635 4.7518 23.56 4.96282 21.1088 6.95577C19.4299 8.32152 18.4494 10.0644 18.2841 12.239C18.2646 12.4833 18.1926 12.577 17.9475 12.6318C16.0916 13.0577 14.2396 13.509 12.407 14.0346C12.1152 14.1186 12.0413 14.06 12.0296 13.7669C11.8973 10.3418 12.9342 7.33091 15.1948 4.74985C17.6148 1.9949 20.6652 0.476744 24.2953 0.0859701C24.3926 0.0762008 24.5171 0.130909 24.5813 0C25.5754 0 26.5714 0 27.5655 0Z" fill="#1c1a18"></path><path d="M0.00389013 19.9646C1.02328 19.3159 2.08935 18.8118 3.17488 18.3527C7.70569 16.4359 12.4233 15.1269 17.1953 13.9936C22.7377 12.6767 28.3385 11.6587 33.9724 10.8186C38.0246 10.2129 42.0885 9.70096 46.1661 9.28284C52.4302 8.63806 58.7041 8.21993 65.0033 8.27659C65.3029 8.27855 65.4332 8.20821 65.4585 7.88973C65.476 7.66894 65.476 7.43057 65.6258 7.15703C67.2444 8.60875 68.9349 9.9452 70.713 11.2895C68.5439 12.7236 66.4118 14.1304 64.2213 15.5782C64.2582 15.3047 64.2563 15.1015 64.3146 14.9158C64.4333 14.5446 64.336 14.4313 63.9353 14.441C62.7661 14.4664 61.595 14.4625 60.4258 14.441C60.1184 14.4352 60.0134 14.5485 59.9414 14.824C59.3014 17.2546 58.6419 19.6813 58.0038 22.1139C57.9299 22.3933 57.8345 22.5027 57.5272 22.5007C55.7393 22.4851 53.9496 22.4929 52.1618 22.4929H51.7669C52.1676 20.9806 52.5567 19.5133 52.9438 18.0479C53.2337 16.9557 53.5099 15.8615 53.8173 14.7752C53.8951 14.4977 53.8251 14.4586 53.5722 14.4645C52.7648 14.4821 51.9575 14.4899 51.1521 14.4801C50.9187 14.4782 50.7825 14.5856 50.6424 14.74C49.5822 15.9045 48.5181 17.0651 47.452 18.2257C47.1524 18.552 47.1388 18.5481 46.9773 18.1221C46.5785 17.0651 46.1739 16.01 45.7867 14.9491C45.7011 14.7126 45.5883 14.6149 45.3218 14.6306C44.5028 14.6775 43.6838 14.7068 42.8628 14.7185C42.6216 14.7224 42.5457 14.826 42.4912 15.037C41.8765 17.364 41.2442 19.6852 40.6451 22.0181C40.5439 22.4089 40.3824 22.5105 39.9972 22.5047C38.2756 22.4832 36.5539 22.489 34.8322 22.5007C34.5326 22.5027 34.4762 22.4402 34.5599 22.1393C35.161 19.949 35.7427 17.7509 36.3321 15.5567C36.4527 15.1054 36.4527 15.0936 35.9897 15.1269C34.877 15.205 33.7662 15.3047 32.6514 15.375C32.3635 15.3926 32.3091 15.5626 32.2468 15.7794C31.8169 17.321 31.3792 18.8587 30.9473 20.4003C30.8928 20.5977 30.8267 20.7599 30.6205 20.8712C27.2024 22.7274 23.582 23.4406 19.7593 22.6219C16.9677 22.022 14.6157 20.668 13.1839 18.0537C13.0458 17.8036 12.8668 17.8505 12.6762 17.8818C11.0985 18.1299 9.5188 18.3761 7.94303 18.6399C5.33426 19.0756 2.72744 19.525 0.118669 19.9685C0.0797612 19.9744 0.0389078 19.9685 0 19.9685L0.00389013 19.9646ZM20.1951 16.7876C20.2846 16.8677 20.3157 16.9088 20.3566 16.9303C20.5453 17.0319 20.732 17.1413 20.9285 17.2214C22.3992 17.8076 23.8836 17.7353 25.3854 17.3347C25.9243 17.1921 26.2317 16.9146 26.325 16.3539C26.3717 16.0803 26.3659 16.0022 26.0566 16.0432C24.794 16.2112 23.5295 16.35 22.265 16.5063C21.5938 16.5903 20.9246 16.688 20.1932 16.7876H20.1951Z" fill="#53B852"></path><path d="M38.0725 9.06791C38.5764 7.18634 39.0608 5.36924 39.5472 3.55215C39.7981 2.6182 40.0646 1.6862 40.2961 0.748347C40.3584 0.498252 40.4615 0.431821 40.7047 0.433774C42.5333 0.443544 44.362 0.447452 46.1926 0.429867C46.4805 0.427913 46.5856 0.533422 46.6712 0.783517C47.4279 3.02265 48.1886 5.26178 48.9687 7.49505C49.0796 7.81158 49.0076 7.87605 48.7061 7.90341C46.7529 8.09098 44.7997 8.28246 42.8485 8.49347C41.405 8.64978 39.9674 8.83931 38.5258 9.0132C38.3955 9.02883 38.2632 9.04447 38.0725 9.06791Z" fill="#1c1a18"></path><path d="M50.6016 7.69434C51.5606 6.59822 52.4789 5.54704 53.399 4.49781C54.5079 3.23171 55.6207 1.97146 56.7198 0.69754C56.8852 0.506061 57.0505 0.42986 57.3034 0.431814C59.3461 0.441584 61.3907 0.445491 63.4334 0.42986C63.7641 0.427906 63.803 0.506061 63.7213 0.806957C63.1707 2.81553 62.6377 4.82801 62.0988 6.8405C62.0444 7.04175 61.9977 7.18829 61.7156 7.18829C58.0563 7.19219 54.4087 7.44034 50.7611 7.71192C50.7358 7.71192 50.7086 7.70606 50.6016 7.69434Z" fill="#1c1a18"></path><path d="M33.6572 9.61694C30.2567 10.2109 26.8737 10.7834 23.4342 11.4614C23.5879 10.8576 23.7221 10.291 23.8778 9.73222C23.9342 9.53293 24.1307 9.62085 24.2629 9.62085C27.0721 9.61694 29.8812 9.61694 32.6904 9.61694C33.0114 9.61694 33.3343 9.61694 33.6553 9.61694H33.6572Z" fill="#1c1a18"></path></svg>
