<svg width="484" height="255" viewBox="0 0 484 255" fill="none" xmlns="http://www.w3.org/2000/svg" class="primary purple"><path d="M484 0H0V255H484V0Z" fill="#5B00B3"></path><path d="M340.665 100.31C329.365 100.31 321.161 91.5907 321.161 79.587C321.161 67.5832 329.365 58.8636 340.665 58.8636C348.508 58.8636 355.153 63.0309 358.204 69.7802H376.556C372.555 52.7711 358.452 41.8545 340.236 41.8545C318.539 41.8545 302.786 57.7311 302.786 79.6096C302.786 101.488 318.539 117.365 340.236 117.365C358.498 117.365 372.646 106.403 376.669 89.3258H358.317C355.198 96.1431 348.508 100.356 340.688 100.356L340.665 100.31Z" fill="white"></path><path d="M77.9285 41.8318C55.6665 41.8318 39.5068 57.7084 39.5068 79.5869C39.5068 101.465 55.6665 117.342 77.9285 117.342C100.19 117.342 116.237 101.465 116.237 79.5869C116.237 57.7084 100.123 41.8318 77.9285 41.8318ZM77.9285 100.31C66.3116 100.31 57.8814 91.5906 57.8814 79.5869C57.8814 67.5832 66.3116 58.8635 77.9285 58.866 79.5869C97.8626 91.5906 89.4776 100.31 77.9285 100.31Z" fill="white"></path><path d="M172.943 78.4998L171.564 77.6618L172.83 76.6426C176.966 73.2906 179.362 68.1041 179.362 62.4193C179.362 50.9139 170.841 43.2134 158.162 43.2134H126.792V115.915H158.682C173.056 115.915 182.345 107.92 182.345 95.5315C182.345 88.4199 178.842 82.0556 172.943 78.4998ZM143.652 57.4593H154.93C159.721 57.4593 162.569 60.1545 162.569 64.7068C162.569 69.2592 159.721 71.7279 154.93 71.7279H143.652V57.4593ZM156.964 100.944H143.652V85.1811H156.964C161.756 85.1811 164.716 88.1934 164.716 93.0628C164.716 97.9322 161.665 100.944 156.964 100.944Z" fill="white"></path><path d="M235.638 86.4268V43.2134H201.872V59.2712H217.693V84.932C217.693 95.2144 212.495 100.197 201.804 100.197C199.364 100.197 196.674 100.016 193.646 99.6082V116.074C197.714 116.685 201.646 116.98 205.33 116.98C225.716 116.98 235.616 106.992 235.616 86.4041L235.638 86.4268Z" fill="white"></path><path d="M293.632 100.31H264.545V87.0156H291.372V72.0223H264.545V58.5238H293.632V43.2134H246.939V115.915H293.632V100.31Z" fill="white"></path><path d="M383.154 43.2134V59.3844H401.958V115.915H419.903V59.3844H438.595V43.2134H383.154Z" fill="white"></path><path d="M45.5187 211.9H63.3283V186.307H88.0312V170.453H63.3283V155.142H90.3817V139.198H45.5187V211.9Z" fill="white"></path><path d="M100 155.165H110.894V196H100V211.945H139.733V196H128.839V155.165H139.733V139.243H100V155.165Z" fill="white"></path><path d="M250.215 168.029C241.288 166.603 236.768 164.995 236.768 160.17C236.768 155.845 240.293 153.353 246.441 153.353C252.023 153.353 255.617 155.731 256.679 160.102H273.969C272.455 146.468 262.103 138.065 246.667 138.065C230.01 138.065 219.275 146.944 219.275 160.714C219.275 172.922 226.868 179.558 243.864 182.185C252.136 183.521 257.628 185.469 257.628 190.701C257.628 194.891 253.673 197.518 247.3 197.518C239.254 197.518 236.677 193.6 236.044 189.908H218.461C219.636 204.63 230.078 213.032 247.3 213.032C264.522 213.032 275.461 204.222 275.461 190.066C275.461 177.7 267.211 170.498 250.238 168.052L250.215 168.029Z" fill="white"></path><path d="M280.275 155.392H299.079V211.945H317.025V155.392H335.716V139.243H280.275V155.392Z" fill="white"></path><path fill-rule="evenodd" clip-rule="evenodd" d="M187.498 139.243C199.951 139.243 209.331 148.936 209.331 161.801C209.331 179.331 196.109 183.747 195.544 183.928L194.12 184.382L194.098 184.404L212.585 212.012H192.063L174.525 185.378H167.271V212.012H150.455V139.243H187.498ZM167.293 153.489V171.087H184.176C189.487 171.087 193.216 167.418 193.216 162.3C193.216 157.181 189.464 153.489 184.312 153.489H167.293Z" fill="white"></path></svg>
