<svg width="48" height="48" viewBox="7.6 6 36 36" fill="none" xmlns="http://www.w3.org/2000/svg">
  <defs>
    <radialGradient gradientTransform="translate(-7.5 59) rotate(-19.4635) scale(177.067 276.192)" cx="0" cy="0" r="1" id="sber_g" gradientUnits="userSpaceOnUse">
      <stop offset="0.063611" stop-color="#EAE619"/>
      <stop offset="0.390103" stop-color="#15B648"/>
      <stop offset="0.745717" stop-color="#0A9FDF"/>
    </radialGradient>
  </defs>
  <rect x="7.6" y="6" width="36" height="36" rx="9" fill="url(#sber_g)"/>
  <path d="M36.62 23.99C36.62 23.32 36.56 22.67 36.45 22.03L34.09 23.77C34.09 23.84 34.09 23.92 34.09 23.99C34.09 28.64 30.31 32.43 25.66 32.43C21.01 32.43 17.23 28.64 17.23 23.99C17.23 19.35 21.01 15.56 25.66 15.56C27.42 15.56 29.06 16.11 30.41 17.03L32.55 15.46C30.66 13.94 28.27 13.03 25.66 13.03C19.61 13.03 14.7 17.94 14.7 23.99C14.7 30.05 19.61 34.96 25.66 34.96C31.71 34.96 36.62 30.05 36.62 23.99Z" fill="#FFFFFF"/>
  <path d="M34.33 17.29C34.85 17.96 35.29 18.69 35.65 19.47L25.66 26.83L21.48 24.22L21.48 21.07L25.66 23.69L34.33 17.29Z" fill="#FFFFFF"/>
</svg>
