<svg width="60" height="60" viewBox="0 0 60 60" fill="none" xmlns="http://www.w3.org/2000/svg">
<g clip-path="url(#clip0_3063_885)">
<path d="M60 0H0V60H60V0Z" fill="#BA0C2F"/>
<path d="M12.7697 25.2551V23.1753C12.7697 22.1942 12.495 21.9588 11.9456 21.9588C11.3962 21.9588 11.1215 22.1942 11.1215 23.1753V25.569C11.1215 26.9817 15.4381 30.8273 15.4381 32.7894V36.2426C15.4381 38.7933 13.5937 39.5389 11.9456 39.5389C10.2975 39.5389 8.45312 38.7933 8.45312 36.2426V35.1831L11.1215 33.6135V36.0072C11.1215 36.9882 11.3962 37.2237 11.9456 37.2237C12.4557 37.2237 12.7697 36.9882 12.7697 36.0072V33.9666C12.7697 31.2197 8.45312 28.9045 8.45312 25.726V22.9398C8.45312 20.3891 10.2975 19.6436 11.9456 19.6436C13.5937 19.6436 15.4381 20.3891 15.4381 22.9398V23.6462L12.7697 25.2551Z" fill="white"/>
<path d="M30.6606 36.9097H32.8189L33.5645 39.5389H27.9922V19.6436H30.6606V36.9097Z" fill="white"/>
<path d="M52.0514 19.6436V22.2727H49.5007V39.5389H46.8323V22.2727H44.4778L44.2031 19.6436H52.0514Z" fill="white"/>
<path d="M41.4963 19.6436H37.4937L35.4531 39.5389H37.8861L38.4747 34.2413H40.3583L40.8684 39.5389H43.5761L41.4963 19.6436ZM38.7102 31.6122L39.2988 24.3133H39.6127L40.0836 31.6122H38.7102Z" fill="white"/>
<path d="M21.0049 19.6436H18.2188V39.5389H20.8872V22.0373C21.9859 22.0373 22.5353 22.0765 22.5353 23.9601V28.7083C22.5353 29.3362 21.9859 29.5324 21.3581 29.6109L21.9859 31.9653C24.105 31.7299 25.2037 30.7489 25.2037 27.9235V23.5284C25.1645 20.86 23.948 19.6436 21.0049 19.6436Z" fill="white"/>
<path d="M52.7969 17.2506V15.4062H53.6209C53.7779 15.4062 53.8956 15.4063 54.0134 15.4455L54.2096 15.6025C54.2488 15.6809 54.288 15.7594 54.288 15.8771C54.288 15.9949 54.2488 16.1126 54.1703 16.1911C54.0918 16.2696 53.9741 16.348 53.7779 16.348L53.9349 16.4265C54.0134 16.505 54.0526 16.5835 54.1311 16.662L54.445 17.1721H54.1311L53.8956 16.7797C53.8172 16.662 53.7779 16.5835 53.7387 16.5442L53.6209 16.4265L53.5032 16.3873H53.3855H53.0323V17.2506H52.7969ZM53.0323 16.2303H53.5425C53.6602 16.2303 53.7387 16.2303 53.8172 16.1911L53.9741 16.0734L54.0134 15.9164L53.8956 15.7202C53.8564 15.6809 53.7387 15.6417 53.5817 15.6417H53.0323V16.2303Z" fill="white"/>
<path d="M51.7812 16.3868C51.7812 17.3286 52.5661 18.1134 53.5471 18.1134C54.4889 18.1134 55.2737 17.3286 55.2737 16.3868C55.2737 15.445 54.4889 14.6602 53.5471 14.6602C52.5661 14.6602 51.7812 15.445 51.7812 16.3868ZM51.9775 16.3868C51.9775 15.5235 52.6838 14.8564 53.5079 14.8564C54.3319 14.8564 55.0383 15.5235 55.0383 16.3868C55.0383 17.2108 54.3712 17.9172 53.5079 17.9172C52.6838 17.9172 51.9775 17.2501 51.9775 16.3868Z" fill="white"/>
</g>
<defs>
<clipPath id="clip0_3063_885">
<rect width="60" height="60" fill="white"/>
</clipPath>
</defs>
</svg>
