<?xml version="1.0" encoding="UTF-8"?>
<svg id="Layer_1" xmlns="http://www.w3.org/2000/svg" version="1.1" viewBox="0 0 121 24">
  <!-- Generator: Adobe Illustrator 30.4.0, SVG Export Plug-In . SVG Version: 2.1.4 Build 226)  -->
  <defs>
    <style>
      .st0 {
        fill: #46c800;
      }
    </style>
  </defs>
  <path d="M78.1,8.6v-3.7h-19.8v3.7h19.8Z"/>
  <path d="M54.2,4.9h-3.7v19.1h3.7V4.9Z"/>
  <path d="M70,4.9h-3.7v19.1h3.7V4.9Z"/>
  <path d="M19.7,4.9v13.4c0,3.1-2.5,5.7-5.7,5.7H5.7c-3.1,0-5.7-2.5-5.7-5.7V4.9h3.7v13.3c0,1.2.9,2.1,2.1,2.1h8.2c1.2,0,2.1-.9,2.1-2.1V4.9h3.7Z"/>
  <path d="M39.7,19.8c.2.3.5.5.9.5h.4c.5,0,1-.4,1-1V4.9h3.7v15.4c0,1.8-1.4,3.4-3.1,3.6-.2,0-.3,0-.5,0h-2c-1.3,0-2.6-.7-3.2-1.9l-7-13c-.2-.3-.5-.5-.9-.5h-.4c-.5,0-1,.4-1,1v14.5h-3.7v-15.4c0-1.8,1.4-3.4,3.1-3.6.2,0,.3,0,.5,0h2c1.3,0,2.6.7,3.2,1.9l7,13Z"/>
  <path d="M90.7,20.4h-5.1c-1.2,0-2.2-1-2.2-2.2s1-2.2,2.2-2.2h10v-3.4h-10.1c-3.1,0-5.7,2.5-5.7,5.7s2.5,5.7,5.7,5.7h13.8v-3.6h-8.5Z"/>
  <path d="M99.2,8.6h-19.4c0-2,1.6-3.7,3.7-3.7h15.8v3.7Z"/>
  <path d="M115.8,24h-7.7c-3.1,0-5.7-2.5-5.7-5.7V4.9h3.7v13.3c0,1.2.9,2.1,2.1,2.1h7.6v3.7h0Z"/>
  <path class="st0" d="M115.8,9.8c2.7,0,4.9-2.2,4.9-4.9s-2.2-4.9-4.9-4.9-4.9,2.2-4.9,4.9,2.2,4.9,4.9,4.9ZM119.3,4.9c0,2-1.6,3.6-3.6,3.6s-1.8-.8-1.8-1.8.8-1.8,1.8-1.8v1.3c1.7,0,3.1-1.4,3.1-3.1.3.5.4,1.1.4,1.7h0ZM112.2,4.9c0-2,1.6-3.6,3.6-3.6s1.8.8,1.8,1.8-.8,1.8-1.8,1.8v-1.3c-1.7,0-3.1,1.4-3.1,3.1-.3-.5-.4-1.1-.4-1.7h0Z"/>
</svg>